<?xml version="1.0" standalone="no"?>
<!DOCTYPE svg PUBLIC "-//W3C//DTD SVG 20010904//EN"
 "http://www.w3.org/TR/2001/REC-SVG-20010904/DTD/svg10.dtd">
<svg version="1.0" xmlns="http://www.w3.org/2000/svg"
 width="1318.000000pt" height="367.000000pt" viewBox="0 0 1318.000000 367.000000"
 preserveAspectRatio="xMidYMid meet">

<g transform="translate(0.000000,367.000000) scale(0.100000,-0.100000)"
fill="#000000" stroke="none">
<path d="M0 1835 l0 -1835 4819 0 c2651 0 4826 3 4835 6 9 3 13 11 9 17 -4 6
0 8 11 4 14 -5 15 -3 6 13 -19 35 -10 48 57 91 86 54 114 58 146 20 13 -16 34
-34 46 -41 17 -9 20 -15 12 -23 -6 -6 -11 -17 -11 -25 0 -20 73 -11 160 19 90
30 134 54 199 106 52 41 181 120 181 110 0 -2 -17 -16 -37 -30 -21 -14 -65
-51 -98 -82 -89 -85 -137 -123 -178 -140 -20 -8 -37 -22 -37 -30 0 -12 19 -15
110 -15 l109 0 28 31 c89 98 131 132 215 174 58 29 103 45 127 45 38 0 93 -28
121 -62 11 -15 28 -21 51 -20 44 1 95 -31 105 -66 4 -15 8 -30 9 -34 2 -5 4
-10 5 -13 1 -3 3 -10 4 -16 4 -39 -6 -39 1107 -39 l1067 0 0 280 c-1 154 -2
280 -5 280 -2 0 -8 -10 -13 -22 -8 -18 -9 -13 -4 20 6 42 6 42 -20 33 -21 -9
-26 -7 -31 9 -4 11 -3 25 1 32 6 9 3 9 -9 -1 -12 -9 -17 -10 -17 -2 0 7 -6 9
-12 6 -7 -4 3 7 22 24 39 34 55 39 46 15 -10 -25 17 -11 32 17 8 16 12 63 10
148 l-3 124 -120 50 c-66 27 -187 77 -270 112 -82 35 -197 78 -255 95 -58 18
-122 41 -143 52 -22 11 -41 17 -43 15 -9 -8 112 -59 229 -98 65 -21 124 -43
131 -48 14 -12 186 -84 269 -113 32 -11 56 -22 54 -24 -2 -2 -24 3 -48 11 -24
9 -52 14 -62 11 -10 -2 -14 0 -10 7 4 7 0 8 -11 4 -11 -4 -15 -3 -10 4 4 8 -1
9 -16 4 -16 -5 -20 -4 -15 5 4 7 2 10 -6 9 -22 -5 -69 10 -69 22 0 6 -4 8 -9
4 -5 -3 -15 1 -23 8 -15 15 -131 64 -265 112 -147 54 -270 121 -298 164 -32
49 -48 113 -36 144 13 34 62 66 124 83 29 8 54 14 56 14 2 0 1 -9 -2 -21 -6
-22 -1 -22 48 -4 17 7 18 6 7 -6 -7 -8 -16 -14 -20 -15 -157 -19 -179 -30
-167 -87 12 -53 36 -97 69 -121 40 -30 184 -87 305 -121 52 -14 202 -75 333
-135 131 -60 247 -111 258 -115 18 -6 19 -1 19 82 -1 48 -6 94 -12 101 -8 10
-7 16 2 21 9 6 8 11 -3 20 -23 19 -169 81 -178 75 -4 -3 -8 -1 -8 4 0 5 -18
16 -40 25 -22 8 -40 20 -40 26 0 6 43 39 95 74 52 35 92 66 90 69 -3 3 6 8 20
12 14 4 25 11 25 16 0 6 11 15 24 20 l25 9 1 432 c0 413 0 432 -17 417 -34
-29 -387 -249 -573 -356 -52 -31 -146 -87 -208 -126 -62 -39 -198 -116 -301
-171 -104 -55 -199 -107 -212 -116 l-24 -17 40 -16 c57 -24 83 -52 90 -100 17
-109 28 -144 44 -139 13 4 13 3 2 -5 -32 -23 14 -57 178 -132 88 -40 191 -93
228 -117 143 -94 142 -94 225 -87 140 12 248 -37 248 -112 0 -31 3 -34 29 -34
36 0 61 -9 61 -21 0 -6 -8 -5 -19 1 -30 15 -77 12 -92 -7 -19 -22 -88 -53
-122 -53 -25 0 -27 -3 -25 -35 1 -19 -1 -37 -5 -41 -4 -4 -7 11 -7 33 l0 41
-52 5 c-29 3 -63 8 -75 12 -17 6 -23 3 -23 -9 0 -9 -4 -16 -9 -16 -5 0 -7 9
-4 20 3 12 -5 31 -21 51 -20 23 -26 40 -24 69 2 21 6 36 11 33 4 -2 7 -1 7 4
0 4 -17 18 -38 30 -20 12 -61 42 -90 67 -77 66 -78 56 -3 -15 44 -43 54 -56
33 -45 -16 8 -47 34 -68 56 -44 47 -120 93 -179 109 -22 6 -74 28 -115 48 -73
37 -76 40 -111 110 -25 50 -38 91 -42 135 -6 66 -28 98 -67 98 -10 0 -26 7
-35 16 -15 15 -15 14 -9 -10 6 -25 -10 -39 -18 -15 -5 14 -38 0 -38 -17 0 -8
-7 -14 -15 -14 -11 0 -14 -8 -10 -30 4 -20 1 -30 -7 -30 -9 0 -8 -4 2 -11 12
-8 12 -12 2 -16 -10 -4 -10 -8 0 -20 10 -12 9 -17 -5 -28 -15 -11 -16 -14 -2
-25 8 -7 15 -17 15 -22 0 -6 -7 -5 -15 2 -20 17 -20 -4 1 -24 8 -9 11 -16 5
-16 -6 0 -11 -4 -11 -10 0 -5 7 -10 15 -10 8 0 15 -5 15 -11 0 -5 -5 -7 -10
-4 -15 9 -12 -10 10 -84 28 -91 73 -166 118 -194 20 -13 80 -42 132 -65 52
-23 203 -89 335 -147 132 -58 244 -111 250 -117 7 -8 6 -9 -2 -4 -7 4 -13 2
-13 -4 0 -6 -4 -8 -10 -5 -13 8 -13 -1 0 -25 10 -18 8 -19 -32 -6 -91 28 -435
174 -608 258 -95 46 -171 116 -190 173 -7 20 -14 34 -17 32 -8 -9 27 -78 61
-120 23 -28 32 -47 27 -56 -6 -8 -11 -9 -15 -3 -3 6 -1 12 5 14 7 2 0 12 -15
21 -14 10 -26 13 -26 7 0 -6 7 -13 15 -16 8 -4 13 -10 10 -14 -3 -5 5 -16 17
-24 29 -20 8 -21 -39 -1 -20 8 -37 14 -39 13 -1 -2 -4 -46 -6 -98 -3 -80 -6
-95 -21 -98 -9 -2 -17 1 -17 7 0 6 5 11 11 11 5 0 7 5 4 10 -4 7 -13 7 -26 0
-11 -6 -24 -8 -29 -5 -6 3 -10 1 -10 -5 0 -7 9 -14 20 -17 23 -6 27 -23 5 -23
-8 0 -15 5 -15 11 0 5 -4 7 -10 4 -6 -4 -10 28 -11 87 -1 98 -14 241 -18 198
-1 -14 -7 -34 -12 -45 -6 -13 -8 37 -5 140 3 144 7 175 40 303 20 79 43 157
52 175 26 51 61 94 82 99 16 5 14 -4 -15 -51 -34 -57 -67 -154 -77 -226 -4
-26 5 -9 23 47 31 91 78 188 93 188 4 0 8 7 8 16 0 8 4 13 9 9 5 -3 12 -1 16
5 3 5 0 10 -7 10 -15 1 62 70 78 70 5 0 37 16 70 36 32 20 70 40 84 44 14 4
34 11 44 16 13 5 17 4 13 -3 -4 -6 -1 -13 5 -15 8 -3 0 -12 -17 -21 -16 -9
-25 -16 -20 -17 17 0 98 46 325 183 118 72 251 152 295 177 234 137 515 319
515 332 0 6 -15 -1 -32 -14 -35 -26 -313 -200 -483 -301 -55 -33 -158 -97
-230 -142 -71 -45 -161 -99 -200 -120 -38 -21 -84 -46 -102 -57 -30 -18 -31
-18 -29 -1 2 10 7 18 12 18 5 0 42 22 83 48 41 27 98 62 129 79 30 17 96 59
146 92 51 34 113 72 139 86 26 14 49 31 52 38 6 17 -55 -18 -200 -113 -123
-81 -265 -167 -265 -160 0 2 -37 -13 -82 -34 -46 -21 -90 -38 -98 -38 -8 0
-52 -14 -96 -32 -153 -59 -247 -138 -294 -245 -29 -63 -79 -316 -90 -448 -5
-59 -6 -183 -3 -274 4 -124 3 -165 -6 -160 -6 4 -11 1 -11 -8 0 -8 6 -16 13
-19 6 -2 9 -7 6 -11 -4 -4 -62 18 -130 49 -68 30 -127 55 -131 55 -4 0 -52 21
-105 46 -54 26 -148 71 -210 100 -111 52 -112 53 -110 86 1 18 8 38 16 44 11
8 14 36 13 115 -2 137 2 144 78 143 33 0 60 1 60 3 0 8 -327 152 -447 198 -40
14 -76 31 -79 37 -7 12 -50 -34 -60 -64 -3 -11 -8 -17 -11 -15 -2 3 5 23 16
46 35 67 24 60 -28 -18 -28 -41 -59 -100 -69 -130 -27 -76 -52 -214 -52 -280
0 -78 -12 -56 -16 31 -3 45 2 102 12 148 15 70 82 222 125 281 10 15 19 29 19
32 0 3 -35 21 -77 42 l-78 37 80 25 c88 29 88 40 -1 24 -90 -17 -177 -13 -248
10 -54 18 -63 24 -58 41 3 14 7 16 12 8 5 -8 13 -9 21 -4 8 5 68 9 134 10 157
3 171 4 155 14 -8 5 -9 9 -1 14 6 4 11 12 11 17 0 6 -4 8 -9 5 -5 -4 -12 0
-14 6 -4 10 -8 9 -16 -2 -13 -18 -15 -1 -2 19 6 9 11 10 15 2 4 -6 11 -9 15
-7 4 3 14 -6 21 -19 16 -30 46 -31 107 -4 24 11 47 19 52 19 4 0 6 11 3 25 -3
19 0 25 13 25 12 0 16 -6 12 -19 -3 -15 2 -20 25 -25 50 -10 80 -7 75 7 -2 6
-10 11 -16 9 -6 -1 -11 3 -11 9 0 6 6 9 14 6 17 -7 39 16 28 29 -4 5 -3 6 2 1
5 -4 20 0 34 9 13 8 26 13 29 10 3 -3 12 1 20 9 20 20 53 19 53 -1 0 -11 -6
-15 -18 -12 -10 3 -27 -1 -36 -8 -10 -7 -23 -11 -30 -8 -14 5 -53 -33 -43 -42
3 -4 23 0 44 8 21 9 126 36 233 62 107 26 238 64 290 84 91 36 95 39 93 67 -1
16 3 33 10 37 7 5 0 8 -18 9 -29 0 -30 1 -7 12 16 7 26 7 30 0 4 -5 14 -13 22
-16 12 -4 12 -6 -1 -6 -19 -1 -35 -31 -16 -31 8 0 6 -4 -3 -10 -32 -20 10 -9
59 16 48 25 61 52 20 41 -11 -3 -19 -1 -19 4 0 13 34 11 47 -2 9 -9 28 -2 77
27 42 24 61 41 54 45 -7 5 -16 3 -19 -3 -9 -14 -49 -19 -49 -6 0 4 9 8 19 8
11 0 23 5 26 11 4 5 19 8 33 5 15 -3 34 -1 42 5 12 8 10 9 -9 4 -17 -5 -22 -4
-19 6 3 8 13 13 22 13 9 -1 16 4 16 11 0 7 8 12 18 11 10 0 22 11 31 32 18 41
31 41 26 1 -4 -27 -2 -29 11 -18 8 7 12 19 9 27 -4 10 0 13 13 10 21 -6 82 42
101 79 6 12 11 40 11 62 0 27 11 58 34 99 36 61 38 93 8 147 -14 26 -132 139
-132 127 0 -5 -11 -7 -25 -4 -23 4 -32 27 -26 65 0 4 -3 7 -8 7 -15 0 -20 39
-7 50 7 5 16 7 19 3 13 -12 7 18 -5 31 -11 11 -19 11 -52 0 -21 -8 -65 -14
-98 -14 -57 0 -59 -1 -64 -30 -8 -35 -24 -40 -24 -7 0 12 -4 27 -8 34 -10 16
-45 -11 -47 -36 -1 -11 -14 -32 -29 -46 -21 -20 -26 -29 -17 -38 6 -6 11 -19
11 -28 0 -13 10 -19 38 -21 21 -2 36 -8 35 -15 -1 -6 4 -14 12 -17 9 -3 12 0
8 10 -11 28 22 4 37 -28 13 -27 30 -37 125 -73 61 -23 128 -50 150 -60 38 -16
39 -18 20 -32 -20 -14 -20 -14 0 -29 19 -15 18 -15 -18 -10 -21 4 -48 11 -59
17 -11 6 -22 8 -25 6 -3 -3 8 -12 24 -21 31 -17 30 -17 -44 -21 -29 -1 -50 2
-47 6 6 11 -58 -9 -65 -19 -11 -18 -48 -23 -54 -8 -7 16 -67 49 -67 35 0 -20
4 -24 24 -21 29 5 9 -12 -34 -28 -19 -7 -45 -22 -57 -33 -13 -11 -23 -17 -23
-12 0 11 49 55 61 55 6 0 3 7 -5 16 -10 9 -24 13 -36 9 -28 -9 -16 18 16 35
13 7 24 19 24 25 0 13 -65 35 -101 34 -22 0 -22 -1 -4 -8 11 -5 20 -14 20 -22
0 -9 9 -13 25 -11 21 4 23 2 10 -13 -15 -18 -56 -16 -52 3 3 15 -10 16 -25 1
-14 -14 -103 26 -103 46 0 17 -16 20 -25 5 -5 -8 -11 -7 -21 1 -7 6 -20 9 -28
6 -9 -4 -16 2 -19 15 -4 15 -11 19 -26 15 -12 -3 -24 -1 -27 4 -3 6 -14 7 -25
4 -11 -4 -19 -2 -19 4 0 6 -12 11 -26 11 -21 0 -25 4 -20 18 7 16 6 16 -10 0
-22 -22 -68 -4 -61 24 6 20 -17 48 -38 48 -17 0 -45 -27 -45 -44 0 -6 5 -17
12 -24 9 -9 7 -13 -6 -18 -9 -4 -19 -4 -22 -1 -3 3 -14 -3 -25 -14 -27 -27
-53 -26 -39 1 10 18 9 19 -15 8 -19 -9 -31 -8 -49 1 -21 12 -36 6 -162 -59
-328 -171 -493 -265 -494 -282 0 -27 18 -31 42 -9 12 12 28 21 35 21 7 0 13 5
13 10 0 6 8 10 18 10 23 0 -32 -48 -71 -62 -22 -8 -26 -15 -22 -35 5 -33 13
-39 27 -25 17 17 28 15 28 -5 0 -9 -3 -14 -6 -10 -8 7 -34 -17 -34 -32 0 -6 8
-11 18 -12 9 0 12 -3 5 -5 -7 -3 -9 -12 -6 -20 3 -9 -1 -14 -12 -14 -10 0 -13
-4 -8 -12 4 -7 6 -23 5 -35 -4 -27 23 -118 44 -152 9 -14 11 -20 3 -13 -7 6
-20 12 -28 12 -10 0 -8 -7 10 -26 l24 -27 -37 24 c-35 23 -37 26 -37 79 0 30
-7 80 -15 110 -9 30 -32 123 -52 205 -20 83 -51 210 -69 282 -18 73 -29 131
-25 128 11 -7 98 -234 106 -277 3 -21 8 -38 10 -38 3 0 220 115 474 252 80 43
207 110 283 149 76 39 137 72 135 74 -2 2 -68 23 -148 48 -136 42 -250 69
-580 136 -121 24 -135 29 -138 49 -2 12 2 22 9 22 9 0 9 3 -1 15 -6 8 -8 19
-4 26 9 15 114 6 214 -20 41 -10 120 -27 175 -36 55 -9 110 -18 122 -21 21 -4
22 -2 18 39 -2 24 -11 64 -20 88 -35 95 -28 121 48 161 36 20 57 23 147 23 89
0 112 -3 151 -23 45 -22 69 -54 69 -91 0 -21 -29 -50 -73 -71 -29 -13 -32 -20
-35 -65 -2 -27 -8 -53 -15 -57 -14 -9 -17 -48 -3 -48 6 0 6 -4 -2 -8 -12 -8
218 -82 254 -82 30 0 291 140 328 176 21 21 49 37 68 39 44 6 45 11 1 34 -43
23 -27 26 45 10 47 -11 52 -10 139 30 49 22 95 41 100 41 6 0 16 13 21 30 15
42 67 61 177 63 130 2 178 -29 163 -108 -3 -14 -4 -25 -3 -25 2 0 22 9 46 20
50 22 121 28 101 8 -32 -32 -14 -43 181 -107 105 -35 212 -73 237 -83 40 -17
43 -21 26 -30 -11 -6 -43 -8 -80 -4 -45 5 -56 4 -43 -4 20 -13 23 -77 6 -146
-6 -25 -9 -47 -6 -50 3 -3 32 8 65 25 44 22 63 27 68 19 4 -7 3 -13 -2 -15
-11 -4 -189 -115 -222 -138 -16 -12 -21 -23 -18 -42 3 -14 6 -27 8 -28 6 -6
314 164 333 183 11 12 56 38 100 59 l80 38 -53 3 c-31 2 -60 -2 -68 -9 -19
-15 -52 -3 -36 13 7 7 12 20 12 30 0 10 7 21 15 24 16 7 202 -52 210 -67 4 -5
15 -9 26 -9 20 0 26 -15 9 -25 -6 -4 -18 -1 -26 6 -12 10 -19 8 -39 -11 -17
-16 -29 -20 -35 -14 -7 7 -2 15 15 24 14 7 25 17 25 22 0 11 -4 10 -47 -9 -97
-42 -122 -57 -112 -69 13 -16 -5 -27 -29 -20 -12 4 -26 -1 -37 -14 -17 -19
-17 -20 9 -30 15 -5 33 -10 41 -10 8 0 16 -4 20 -9 11 -18 -13 -21 -60 -7 -51
16 -108 11 -126 -10 -12 -14 -3 -19 29 -15 18 3 15 -29 -5 -36 -9 -4 -29 1
-45 10 -28 16 -31 16 -91 -14 -89 -45 -96 -53 -87 -95 5 -19 18 -43 29 -54 14
-11 18 -19 10 -22 -7 -2 22 -18 64 -35 56 -22 79 -27 88 -19 9 8 11 7 6 -5 -4
-12 8 -22 48 -38 l54 -22 123 72 c68 40 146 90 175 111 l52 38 1 535 0 535
-310 0 c-300 0 -310 -1 -310 -19 0 -30 -17 -34 -24 -6 l-6 25 -1955 0 -1955 0
21 -42 c12 -24 43 -79 70 -124 54 -90 126 -239 131 -269 2 -14 -3 -20 -16 -20
-13 0 -30 26 -65 101 -25 56 -77 158 -116 227 l-70 127 -4287 0 -4288 0 0
-1835z m12676 1810 c4 -8 3 -23 0 -32 -6 -15 -8 -15 -22 -2 -8 9 -12 23 -8 32
8 21 23 22 30 2z m-1585 -47 l-9 -33 -1 36 c-1 20 2 39 6 43 13 12 15 -10 4
-46z m649 42 c0 -5 -4 -10 -10 -10 -5 0 -10 5 -10 10 0 6 5 10 10 10 6 0 10
-4 10 -10z m1178 -29 c5 -35 -15 -50 -26 -20 -5 13 -7 30 -4 37 7 19 27 8 30
-17z m-441 3 c-3 -3 -12 -4 -19 -1 -8 3 -5 6 6 6 11 1 17 -2 13 -5z m603 -12
c0 -10 -5 -23 -12 -30 -9 -9 -9 -12 0 -12 7 0 12 -9 12 -20 0 -11 -7 -20 -15
-20 -11 0 -15 11 -15 43 0 24 3 47 7 50 12 13 23 7 23 -11z m-404 -23 c8 -14
-11 -33 -25 -25 -11 7 -4 36 9 36 5 0 12 -5 16 -11z m234 -53 c-14 -14 -24 0
-16 21 6 15 8 15 16 3 6 -9 5 -19 0 -24z m-736 -81 c3 -9 0 -15 -9 -15 -16 0
-27 14 -18 24 10 10 21 7 27 -9z m-144 -5 c0 -5 -4 -10 -10 -10 -5 0 -10 5
-10 10 0 6 5 10 10 10 6 0 10 -4 10 -10z m-2756 -215 c114 -33 207 -81 297
-153 143 -113 241 -245 279 -372 87 -299 109 -392 98 -413 -13 -26 -12 -29
-77 206 -23 81 -55 184 -72 228 -95 247 -317 432 -610 509 -61 15 -67 19 -38
19 20 1 76 -10 123 -24z m3530 -60 c19 -40 23 -179 5 -173 -7 2 -12 34 -13 84
-1 71 -5 86 -30 125 -28 44 -29 44 -3 20 14 -13 33 -38 41 -56z m106 51 c0
-17 -27 -29 -35 -16 -4 6 -3 15 0 20 9 15 35 12 35 -4z m-2903 -82 c-3 -3 -12
-4 -19 -1 -8 3 -5 6 6 6 11 1 17 -2 13 -5z m-1037 -37 c0 -1 -9 -20 -20 -42
-11 -22 -20 -47 -20 -57 0 -15 -34 -38 -56 -38 -13 0 0 59 21 97 19 32 32 43
50 43 14 0 25 -1 25 -3z m80 -31 c0 -2 -9 -6 -20 -9 -11 -3 -18 -1 -14 4 5 9
34 13 34 5z m-381 -187 c-24 -71 -45 -103 -36 -54 7 38 46 129 52 123 3 -2 -5
-33 -16 -69z m290 -64 c-16 -134 -7 -312 25 -458 24 -107 69 -296 82 -340 5
-15 1 -18 -18 -15 -25 3 -30 17 -98 328 -38 171 -50 370 -30 488 10 64 34 112
47 98 3 -2 -1 -48 -8 -101z m-84 -127 c3 -179 4 -193 70 -503 44 -207 43 -197
28 -202 -21 -8 -98 299 -124 495 -17 130 -4 410 18 388 3 -3 6 -83 8 -178z
m4235 158 c0 -2 -7 -6 -15 -10 -8 -3 -15 -1 -15 4 0 6 7 10 15 10 8 0 15 -2
15 -4z m-320 -32 c0 -8 -4 -12 -10 -9 -5 3 -10 10 -10 16 0 5 5 9 10 9 6 0 10
-7 10 -16z m-4015 -54 c-3 -5 -11 -10 -16 -10 -6 0 -7 5 -4 10 3 6 11 10 16
10 6 0 7 -4 4 -10z m-785 -12 c0 -2 -32 -36 -70 -77 -76 -80 -130 -175 -130
-228 0 -46 19 -88 69 -150 47 -60 42 -66 -15 -24 -58 42 -76 65 -89 119 -22
82 7 170 83 254 45 50 153 125 152 106z m659 -87 c-40 -125 -53 -218 -46 -336
6 -90 45 -278 76 -358 14 -37 14 -37 -8 -37 -15 0 -25 19 -50 93 -96 291 -93
492 10 670 18 31 36 57 40 57 4 0 -6 -40 -22 -89z m4331 79 c0 -5 -4 -10 -10
-10 -5 0 -10 5 -10 10 0 6 5 10 10 10 6 0 10 -4 10 -10z m-4440 -102 c-14 -53
-24 -128 -27 -209 -6 -145 7 -227 62 -399 22 -68 31 -108 25 -114 -16 -16 -27
3 -59 94 -78 224 -81 459 -8 668 29 86 33 63 7 -40z m4492 60 c-6 -6 -15 -8
-19 -4 -4 4 -1 11 7 16 19 12 27 3 12 -12z m-4982 -11 c0 -7 -16 -29 -36 -48
-79 -75 -131 -159 -161 -259 -8 -27 -23 11 -23 58 0 57 22 101 84 170 70 76
136 115 136 79z m5060 -3 c0 -8 -4 -12 -10 -9 -5 3 -10 10 -10 16 0 5 5 9 10
9 6 0 10 -7 10 -16z m-30 -14 c0 -5 -5 -10 -11 -10 -5 0 -7 5 -4 10 3 6 8 10
11 10 2 0 4 -4 4 -10z m-348 -18 c53 -20 76 -38 37 -29 -33 8 -99 36 -99 42 0
8 13 6 62 -13z m228 -41 c0 -4 -11 -6 -25 -3 -14 2 -25 6 -25 8 0 2 11 4 25 4
14 0 25 -4 25 -9z m-2220 -21 c0 -4 -6 -12 -12 -18 -16 -12 -62 3 -53 18 4 6
10 8 15 5 5 -3 11 -1 15 4 6 11 35 4 35 -9z m2350 0 c0 -5 -5 -10 -11 -10 -5
0 -7 5 -4 10 3 6 8 10 11 10 2 0 4 -4 4 -10z m-2402 -47 c2 -7 -3 -13 -11 -13
-24 0 -50 -37 -43 -63 4 -19 0 -26 -20 -35 -32 -15 -34 -15 -34 3 0 9 6 12 15
9 8 -4 15 -1 15 6 0 6 -9 14 -19 17 -12 3 -17 11 -14 19 6 16 -22 19 -32 4 -5
-8 -11 -7 -21 1 -19 16 -6 32 20 25 13 -3 32 1 45 10 13 10 32 14 46 10 20 -5
23 -3 18 10 -4 12 -1 15 12 13 10 -2 20 -10 23 -16z m-7758 -293 l0 -290 -50
0 -50 0 0 290 0 290 50 0 50 0 0 -290z m3310 0 l0 -290 -50 0 -50 0 0 290 0
290 50 0 50 0 0 -290z m6519 259 c-7 -4 -16 -6 -20 -3 -4 2 -10 -2 -12 -8 -4
-9 -6 -7 -6 3 -1 11 7 17 25 17 17 0 22 -3 13 -9z m-11454 -13 c36 -10 40 -16
48 -55 5 -23 6 -45 4 -48 -3 -2 -22 0 -44 6 -49 14 -106 14 -136 0 -34 -15
-47 -49 -47 -119 0 -69 21 -100 68 -100 61 0 87 61 29 68 -24 3 -27 7 -27 43
l0 39 85 0 85 0 0 -120 0 -120 -55 0 -55 0 0 33 -1 32 -15 -28 c-40 -73 -167
-58 -210 25 -22 42 -30 169 -15 226 30 108 152 159 286 118z m235 -65 l0 -79
29 29 c23 22 39 29 69 29 89 0 102 -25 102 -195 l0 -125 -55 0 -55 0 0 103 c0
106 -7 127 -41 127 -39 0 -49 -27 -49 -131 l0 -99 -55 0 -55 0 0 210 0 210 55
0 55 0 0 -79z m2670 -3 c1 -66 3 -79 12 -63 17 33 39 45 79 45 53 0 86 -18 99
-53 5 -16 10 -83 10 -148 l0 -119 -55 0 -55 0 0 89 c0 107 -10 141 -43 141
-41 0 -47 -17 -47 -127 l0 -103 -55 0 -55 0 0 210 0 210 55 0 55 0 0 -82z
m645 68 c37 -11 40 -15 46 -56 4 -25 5 -46 4 -48 -2 -2 -20 1 -42 7 -84 24
-164 5 -177 -41 -3 -13 -6 -49 -6 -80 0 -67 22 -98 69 -98 58 0 83 62 28 68
-24 3 -27 7 -27 43 l0 39 85 0 85 0 0 -120 0 -120 -55 0 -55 0 0 33 0 32 -20
-32 c-13 -23 -29 -34 -55 -39 -78 -14 -144 24 -165 97 -13 44 -13 164 0 210
26 94 159 143 285 105z m925 -97 c0 -76 3 -108 11 -103 6 3 26 30 45 60 l35
54 59 0 c33 0 60 -4 60 -8 0 -4 -20 -37 -45 -72 -25 -35 -45 -68 -45 -73 0 -5
19 -39 43 -75 24 -37 46 -73 51 -79 5 -10 -8 -13 -58 -13 l-64 0 -44 68 -43
67 -3 -67 -3 -68 -54 0 -55 0 0 210 0 210 55 0 55 0 0 -111z m-2360 51 l0 -50
-55 0 -55 0 0 -155 0 -155 -60 0 -60 0 0 155 0 155 -55 0 -55 0 0 50 0 50 170
0 170 0 0 -50z m-838 -3 l-4 -37 52 0 51 0 -3 -42 c-3 -43 -3 -43 -46 -46
l-43 -3 3 -67 3 -67 45 0 45 0 -4 -40 c-1 -22 -5 -43 -7 -47 -2 -4 -28 -10
-58 -13 -41 -5 -62 -3 -90 10 -43 20 -56 57 -56 158 0 60 -2 67 -20 67 -17 0
-20 7 -20 41 0 32 4 42 19 46 14 3 21 15 23 37 3 29 6 31 48 37 63 8 65 7 62
-34z m9305 11 c-3 -8 -6 -5 -6 6 -1 11 2 17 5 13 3 -3 4 -12 1 -19z m828 3
c-3 -6 -11 -11 -17 -11 -6 0 -6 6 2 15 14 17 26 13 15 -4z m-2058 -13 c-3 -8
-6 -5 -6 6 -1 11 2 17 5 13 3 -3 4 -12 1 -19z m1008 1 c-4 -5 -13 -9 -22 -9
-13 0 -13 3 -3 15 13 15 35 11 25 -6z m-1100 1 c-3 -5 -10 -10 -16 -10 -5 0
-9 5 -9 10 0 6 7 10 16 10 8 0 12 -4 9 -10z m860 -16 c-11 -8 -27 -21 -37 -28
-18 -16 -29 -11 -21 10 3 8 13 14 23 14 10 0 23 7 30 15 7 9 16 13 19 9 3 -3
-3 -12 -14 -20z m-890 -21 c-8 -8 -19 -11 -25 -8 -17 11 -11 20 15 21 21 2 22
0 10 -13z m1270 -4 c-4 -5 -12 -9 -19 -9 -7 0 -23 -12 -37 -26 l-24 -26 25 7
c39 12 63 11 67 -2 3 -9 -6 -13 -26 -13 -17 0 -31 -5 -31 -10 0 -6 -12 -4 -29
4 -16 9 -32 12 -36 8 -4 -4 -5 2 -3 13 2 11 10 20 19 20 8 0 30 12 49 27 31
25 58 29 45 7z m82 -5 c2 -10 0 -13 -3 -6 -3 6 -10 10 -15 6 -5 -3 -9 2 -9 11
0 23 24 13 27 -11z m-9848 -8 c44 -23 63 -62 68 -135 7 -110 -40 -170 -140
-179 -40 -3 -66 1 -101 16 -57 26 -76 64 -76 152 0 112 48 160 158 160 36 0
75 -6 91 -14z m335 4 c22 -8 26 -16 26 -50 0 -22 -3 -40 -7 -40 -5 0 -28 5
-53 11 -46 11 -90 5 -90 -11 0 -5 31 -18 70 -30 77 -23 100 -45 100 -98 0 -75
-94 -118 -209 -94 -30 6 -55 13 -56 14 -1 2 -5 22 -8 46 l-5 43 31 -8 c48 -12
130 -10 134 3 2 7 -25 21 -66 33 -44 13 -76 30 -86 43 -31 45 -11 118 39 138
29 12 149 12 180 0z m1344 -24 c35 -33 37 -37 37 -98 l0 -63 -100 -5 -100 -5
28 -19 c23 -16 39 -18 97 -13 l70 6 0 -34 c0 -44 -23 -57 -110 -62 -121 -8
-190 52 -190 165 0 114 48 162 163 162 63 0 70 -2 105 -34z m316 23 c3 -2 8
-24 12 -47 l6 -41 -51 6 c-65 7 -91 -12 -91 -67 0 -54 26 -74 90 -68 l50 5 0
-42 c0 -39 -3 -44 -31 -54 -77 -27 -165 -4 -199 51 -18 28 -21 46 -18 116 3
83 3 84 41 119 38 34 40 35 112 31 41 -2 76 -6 79 -9z m1183 -9 c17 -10 36
-27 41 -37 16 -29 25 -90 18 -118 -6 -24 -8 -25 -101 -25 -95 0 -115 -8 -73
-31 14 -7 48 -10 95 -6 l73 5 0 -26 c0 -38 -11 -51 -51 -62 -80 -23 -170 -6
-215 41 -28 29 -29 34 -29 119 0 80 2 91 25 115 34 36 54 44 125 44 43 1 69
-5 92 -19z m343 5 c40 -21 60 -63 60 -130 l0 -55 -102 0 -103 -1 25 -21 c22
-18 33 -20 104 -14 77 5 78 5 72 -17 -3 -12 -6 -29 -6 -39 0 -22 -87 -42 -151
-35 -104 13 -143 58 -143 167 0 75 20 122 62 144 36 20 144 20 182 1z m5067
-5 c2 -18 0 -18 -13 -6 -17 18 -18 26 -1 26 7 0 13 -9 14 -20z m-244 -14 c23
-17 22 -33 -3 -41 -11 -3 -27 -13 -35 -22 -9 -8 -19 -12 -23 -8 -4 4 -1 10 6
12 17 7 15 30 -5 37 -14 6 -14 8 3 21 24 18 34 18 57 1z m201 0 c-3 -9 3 -17
16 -21 25 -8 19 -18 -11 -20 -13 -1 -18 3 -15 12 4 10 -1 12 -18 7 -13 -3 -27
-1 -30 5 -4 6 0 12 8 12 29 3 34 4 42 12 11 11 14 9 8 -7z m1266 -6 c0 -5 -5
-10 -11 -10 -5 0 -7 5 -4 10 3 6 8 10 11 10 2 0 4 -4 4 -10z m-947 -15 c-3 -9
-8 -14 -10 -11 -3 3 -2 9 2 15 9 16 15 13 8 -4z m-613 -9 c0 -3 -4 -8 -10 -11
-5 -3 -10 -1 -10 4 0 6 5 11 10 11 6 0 10 -2 10 -4z m1385 -5 c3 -5 1 -12 -5
-16 -5 -3 -10 1 -10 9 0 18 6 21 15 7z m-1036 -22 c-22 -14 -33 -10 -19 6 7 8
17 12 22 9 6 -4 5 -10 -3 -15z m341 11 c0 -5 -5 -10 -11 -10 -5 0 -7 5 -4 10
3 6 8 10 11 10 2 0 4 -4 4 -10z m-717 -6 c9 -10 -33 -45 -45 -38 -5 3 -1 14 9
24 20 21 27 23 36 14z m1343 -12 c-3 -5 -15 -12 -26 -15 -17 -4 -19 -3 -9 9 6
7 15 11 20 8 5 -3 9 0 9 7 0 7 3 10 6 6 3 -3 3 -10 0 -15z m-926 0 c0 -13 -12
-22 -22 -16 -10 6 -1 24 13 24 5 0 9 -4 9 -8z m1043 1 c-7 -2 -21 -2 -30 0
-10 3 -4 5 12 5 17 0 24 -2 18 -5z m-668 -14 c11 -16 1 -19 -13 -3 -7 8 -8 14
-3 14 5 0 13 -5 16 -11z m45 -20 c0 -5 -4 -9 -10 -9 -5 0 -10 7 -10 16 0 8 5
12 10 9 6 -3 10 -10 10 -16z m455 2 c3 -5 1 -12 -5 -16 -5 -3 -10 1 -10 9 0
18 6 21 15 7z m-1298 -18 c-9 -9 -20 -13 -24 -9 -4 4 -1 11 7 16 25 16 35 11
17 -7z m73 -7 c-26 -13 -44 -11 -35 5 4 5 18 9 33 9 l27 0 -25 -14z m1160 -6
c0 -5 -7 -10 -16 -10 -8 0 -12 5 -9 10 3 6 10 10 16 10 5 0 9 -4 9 -10z m36
-27 c-10 -10 -19 5 -10 18 6 11 8 11 12 0 2 -7 1 -15 -2 -18z m-1116 7 c0 -5
-4 -10 -10 -10 -5 0 -10 5 -10 10 0 6 5 10 10 10 6 0 10 -4 10 -10z m280 0 c0
-5 -10 -10 -22 -10 -19 0 -20 2 -8 10 19 13 30 13 30 0z m750 -15 c-7 -8 -17
-15 -23 -15 -6 0 -2 8 9 19 22 21 33 19 14 -4z m-1469 -73 c9 -31 9 -46 1 -54
-11 -11 -28 34 -38 107 -5 39 -5 39 9 15 8 -14 21 -44 28 -68z m777 81 c15 -4
20 -8 12 -13 -7 -4 18 -13 54 -20 l66 -12 -24 -19 c-26 -21 -46 -25 -46 -9 0
6 7 10 15 10 8 0 15 5 15 11 0 15 -49 -18 -73 -48 -10 -13 -23 -21 -28 -18 -5
4 -9 1 -9 -4 0 -6 -5 -11 -11 -11 -8 0 -8 5 1 15 7 8 19 15 26 15 8 0 15 5 15
10 1 6 2 16 3 23 1 6 -16 20 -37 30 -32 15 -36 21 -26 33 13 16 15 16 47 7z
m832 -3 c8 -5 12 -12 8 -15 -9 -9 -48 4 -48 16 0 12 21 11 40 -1z m-1798 -36
c3 -28 0 -38 -20 -53 -18 -13 -25 -29 -28 -62 -6 -65 -7 -69 -16 -69 -12 0 -5
-23 12 -38 13 -12 13 -13 0 -7 -8 4 -6 -1 4 -9 13 -10 15 -16 7 -16 -10 0 -11
-3 -2 -14 9 -11 8 -15 -5 -20 -11 -4 -14 -10 -8 -15 11 -11 197 -91 211 -91 6
0 15 10 21 23 11 20 11 19 6 -11 -3 -18 -9 -63 -14 -100 -4 -37 -8 -55 -9 -40
-1 31 -9 36 -116 78 -62 23 -74 25 -61 11 18 -19 12 -33 -10 -24 -11 4 -14 -6
-14 -43 0 -51 -24 -111 -51 -127 -11 -7 -27 -5 -54 9 -43 21 -53 50 -34 96 10
25 66 70 99 80 10 3 1 12 -25 26 l-40 21 30 1 c27 1 23 5 -35 34 -36 17 -119
56 -185 85 -66 29 -123 56 -128 60 -4 4 1 14 10 23 20 17 430 228 443 228 4 0
10 -16 12 -36z m363 26 c3 -5 1 -10 -4 -10 -6 0 -11 5 -11 10 0 6 2 10 4 10 3
0 8 -4 11 -10z m1058 -8 c-5 -12 -1 -14 15 -10 11 3 23 1 25 -6 3 -8 -5 -11
-27 -8 -17 2 -41 4 -53 4 -13 0 -23 6 -23 13 0 15 9 19 44 21 18 1 23 -2 19
-14z m-963 -22 c0 -6 -9 -2 -20 7 -11 10 -20 19 -20 21 0 1 9 -2 20 -8 11 -6
20 -15 20 -20z m235 12 c-3 -3 -11 0 -18 7 -9 10 -8 11 6 5 10 -3 15 -9 12
-12z m525 -2 c0 -5 -4 -10 -10 -10 -5 0 -10 5 -10 10 0 6 5 10 10 10 6 0 10
-4 10 -10z m298 -2 c7 -7 12 -15 12 -19 0 -11 -38 2 -51 17 -9 11 -8 14 8 14
10 0 24 -5 31 -12z m-672 -9 c3 -6 -1 -18 -10 -27 -9 -10 -16 -12 -16 -5 0 7
5 15 11 19 8 4 7 9 -2 15 -10 6 -10 9 -2 9 6 0 15 -5 19 -11z m446 -18 c-10
-2 -20 -8 -24 -14 -4 -6 -10 -9 -13 -5 -4 3 2 15 12 25 13 13 21 16 30 8 8 -7
7 -11 -5 -14z m473 19 c3 -5 1 -10 -4 -10 -6 0 -11 5 -11 10 0 6 2 10 4 10 3
0 8 -4 11 -10z m-60 -10 c-3 -5 -16 -10 -28 -10 -18 0 -19 2 -7 10 20 13 43
13 35 0z m-825 -10 c0 -5 -4 -10 -10 -10 -5 0 -10 5 -10 10 0 6 5 10 10 10 6
0 10 -4 10 -10z m35 0 c-3 -5 -10 -10 -16 -10 -5 0 -9 5 -9 10 0 6 7 10 16 10
8 0 12 -4 9 -10z m33 -2 c-2 -8 5 -12 16 -10 11 2 15 -1 11 -8 -4 -6 -13 -9
-21 -6 -8 3 -14 1 -14 -4 0 -6 -5 -10 -11 -10 -6 0 -7 5 -2 13 4 6 8 15 9 20
3 15 4 17 9 17 3 0 4 -6 3 -12z m178 -4 c-5 -13 -1 -15 19 -10 19 5 32 0 51
-18 17 -15 22 -26 15 -30 -14 -9 -31 1 -31 20 0 8 -7 14 -15 14 -13 0 -14 -4
-5 -20 9 -17 8 -20 -9 -20 -10 0 -21 -7 -25 -15 -6 -17 4 -20 22 -5 9 7 9 7 2
-2 -6 -8 -4 -16 8 -24 16 -12 16 -13 0 -14 -9 0 -20 5 -23 10 -3 6 -15 10 -26
10 -11 0 -18 4 -14 9 8 14 -31 33 -58 29 -13 -2 -22 -10 -21 -19 1 -18 -35
-46 -37 -29 -3 20 -4 25 -12 38 -5 8 -3 12 7 12 9 0 16 -5 16 -12 0 -6 10 -1
22 12 15 16 18 25 10 28 -7 2 -9 8 -6 13 4 6 11 6 19 -1 16 -13 58 -4 50 11
-4 5 1 9 9 9 9 0 16 5 16 10 0 6 5 10 11 10 6 0 8 -7 5 -16z m306 -3 c-15 -13
-18 -21 -10 -24 22 -8 -38 -26 -69 -21 -19 3 -34 -1 -42 -10 -14 -17 1 -31 24
-22 8 3 15 0 15 -6 0 -7 -13 -9 -34 -5 -21 3 -41 0 -54 -8 -19 -14 -32 -11
-32 7 0 4 11 8 25 8 14 0 25 6 25 13 0 6 12 24 25 40 24 27 42 37 29 15 -5 -8
-2 -9 12 -4 10 5 30 10 43 11 13 2 28 8 34 14 6 6 16 11 22 11 5 -1 0 -9 -13
-19z m312 11 c9 -16 -10 -27 -49 -29 -37 -2 -38 -1 -15 9 14 6 31 10 39 9 7
-1 10 2 6 8 -3 6 -2 11 4 11 5 0 12 -4 15 -8z m-1382 -9 c-10 -4 -10 -8 -1
-19 7 -8 10 -17 7 -20 -3 -2 -13 7 -22 21 -16 24 -16 25 6 24 13 0 17 -3 10
-6z m402 -2 c3 -5 22 -12 41 -15 20 -4 33 -11 30 -16 -3 -5 -13 -7 -23 -4 -12
4 -14 3 -4 -3 11 -8 11 -12 0 -20 -20 -16 -54 -22 -69 -12 -10 6 -8 9 9 9 12
0 22 5 22 10 0 6 -4 10 -10 10 -5 0 -7 7 -4 15 4 8 1 15 -5 15 -6 0 -11 5 -11
10 0 12 17 13 24 1z m821 -1 c3 -6 -4 -10 -17 -10 -18 0 -20 2 -8 10 19 12 18
12 25 0z m61 -27 c-3 -7 -1 -13 5 -13 6 0 8 -4 4 -10 -9 -14 -34 0 -28 16 4
10 0 12 -11 8 -9 -3 -16 -11 -16 -16 0 -6 -7 -5 -15 2 -13 11 -13 15 -3 21 20
13 69 7 64 -8z m-1241 -21 c-3 -3 -11 0 -18 7 -9 10 -8 11 6 5 10 -3 15 -9 12
-12z m1149 4 c-3 -7 -11 -13 -17 -13 -34 1 -46 -5 -49 -25 -2 -18 -13 -24 -53
-33 -33 -7 -50 -15 -50 -25 0 -11 -11 -15 -42 -14 -24 1 -40 -2 -37 -7 3 -5
14 -9 25 -9 12 0 17 -4 14 -11 -4 -6 -1 -9 7 -7 7 2 13 -1 13 -7 0 -5 -4 -10
-10 -10 -5 0 -16 -4 -22 -8 -9 -6 -11 -3 -7 7 4 10 -1 19 -12 23 -24 9 -49 33
-35 33 6 0 20 9 31 20 21 21 46 28 35 10 -3 -5 -1 -10 5 -10 19 0 70 30 70 41
0 7 -6 6 -17 -2 -15 -12 -16 -12 -10 4 4 10 7 23 7 29 0 7 5 6 14 -1 11 -10
16 -8 24 6 6 10 14 14 18 10 4 -4 -1 -14 -12 -21 -18 -14 -18 -15 -1 -22 19
-7 32 1 32 19 0 7 16 17 35 24 46 16 50 16 44 -1z m-653 -19 c-12 -16 -91 -22
-91 -8 0 9 29 16 79 20 18 1 21 -2 12 -12z m369 9 c0 -2 -7 -6 -15 -10 -8 -3
-15 -1 -15 4 0 6 7 10 15 10 8 0 15 -2 15 -4z m384 -35 c3 -5 -1 -11 -9 -14
-9 -4 -12 -1 -8 9 6 16 10 17 17 5z m-740 -17 c3 -8 10 -13 14 -10 5 3 9 -1 9
-9 0 -8 -6 -15 -14 -15 -7 0 -13 -4 -13 -10 0 -5 -7 -7 -15 -4 -11 5 -13 2 -9
-11 6 -14 3 -16 -13 -11 -10 3 -28 0 -39 -9 -22 -17 -54 -20 -54 -5 0 6 7 10
15 10 8 0 15 5 15 11 0 6 9 8 20 4 11 -3 20 -3 20 2 0 4 14 15 32 22 l32 15
-39 17 -40 18 36 0 c25 1 39 -4 43 -15z m600 -9 c-14 -13 -31 -22 -36 -19 -13
8 23 43 45 43 15 1 13 -3 -9 -24z m55 2 c-2 -1 -12 -9 -22 -16 -15 -12 -17
-12 -11 3 3 9 13 16 22 16 8 0 13 -1 11 -3z m-768 -26 c-7 -5 -11 -14 -7 -20
4 -7 -5 -10 -28 -9 -29 1 -32 3 -21 15 8 7 20 13 29 13 8 0 18 5 21 11 4 6 10
8 13 4 4 -3 0 -10 -7 -14z m277 0 c4 -13 -3 -13 -47 -5 -17 4 -31 11 -31 16 0
13 73 3 78 -11z m166 13 c24 -9 19 -30 -6 -31 -13 0 -17 1 -10 4 18 7 15 21
-5 26 -10 3 -13 5 -6 6 6 0 18 -2 27 -5z m197 -41 c-23 -17 -27 -16 -28 10 0
12 1 16 4 10 3 -7 9 -13 15 -13 6 0 8 6 5 14 -3 8 -3 17 1 21 3 3 9 -2 13 -12
4 -11 0 -23 -10 -30z m-1358 18 c17 -17 -22 -40 -69 -41 -53 0 -79 24 -49 47
22 16 99 13 118 -6z m1057 1 c0 -5 -16 -16 -36 -26 -29 -13 -39 -14 -48 -5 -8
9 -8 10 1 5 14 -8 64 14 57 25 -3 5 2 9 10 9 9 0 16 -4 16 -8z m-130 -10 c0
-5 -7 -9 -15 -9 -8 0 -12 4 -9 9 3 4 9 8 15 8 5 0 9 -4 9 -8z m510 -8 c0 -2
-7 -4 -15 -4 -8 0 -15 4 -15 10 0 5 7 7 15 4 8 -4 15 -8 15 -10z m-359 -17
c-10 -9 -11 -8 -5 6 3 10 9 15 12 12 3 -3 0 -11 -7 -18z m-1031 -15 c0 -15 -2
-15 -10 -2 -13 20 -13 33 0 25 6 -3 10 -14 10 -23z m327 22 c-3 -3 -12 -4 -19
-1 -8 3 -5 6 6 6 11 1 17 -2 13 -5z m193 -4 c0 -5 -4 -10 -10 -10 -5 0 -10 5
-10 10 0 6 5 10 10 10 6 0 10 -4 10 -10z m309 1 c8 -5 9 -11 3 -15 -5 -3 -15
1 -22 9 -14 16 -3 20 19 6z m-344 -11 c3 -5 1 -10 -4 -10 -6 0 -11 5 -11 10 0
6 2 10 4 10 3 0 8 -4 11 -10z m112 4 c-3 -3 -12 -4 -19 -1 -8 3 -5 6 6 6 11 1
17 -2 13 -5z m399 -19 c-23 -17 -36 -19 -36 -6 0 5 8 12 18 14 32 9 37 6 18
-8z m-151 -13 c-3 -9 1 -11 14 -7 25 8 35 -9 16 -25 -11 -9 -15 -9 -15 -1 0 7
-4 9 -10 6 -5 -3 -10 -1 -10 4 0 6 -9 11 -21 11 -11 0 -18 4 -15 9 4 5 0 11
-6 14 -7 2 2 4 20 3 22 -1 31 -5 27 -14z m-415 -13 c-17 -14 -26 -17 -28 -9
-5 14 16 30 38 30 10 -1 7 -7 -10 -21z m294 9 c-3 -4 -14 -8 -25 -8 -11 0 -18
4 -15 8 2 4 14 8 25 8 11 0 17 -4 15 -8z m-374 -12 c0 -2 -7 -9 -15 -16 -13
-11 -14 -10 -9 4 5 14 24 23 24 12z m448 -23 c-2 -9 -10 -18 -18 -20 -12 -4
-13 -3 -1 5 7 5 10 15 7 21 -4 6 -2 11 4 11 6 0 10 -8 8 -17z m2021 -4 c-8 -5
-9 -9 -3 -9 5 0 15 5 21 11 7 7 13 7 17 1 7 -12 -29 -26 -43 -17 -6 3 -8 12
-5 20 4 8 11 12 16 9 6 -4 5 -10 -3 -15z m-2094 1 c-3 -5 -13 -10 -21 -10 -8
0 -14 5 -14 10 0 6 9 10 21 10 11 0 17 -4 14 -10z m-48 -16 c-3 -3 -12 -4 -19
-1 -8 3 -5 6 6 6 11 1 17 -2 13 -5z m-1527 -29 c0 -21 63 -191 67 -179 2 5
-10 52 -26 104 -17 52 -28 97 -25 99 9 9 39 -17 38 -32 -1 -9 3 -15 8 -14 9 2
33 -50 99 -215 10 -27 17 -48 14 -48 -8 0 -85 158 -85 174 0 8 -4 18 -10 21
-13 8 -4 -42 21 -120 17 -55 23 -61 62 -78 44 -18 118 -73 115 -85 -2 -9 18
-60 33 -86 7 -13 7 -16 0 -11 -7 3 -10 -1 -9 -12 5 -62 -3 -87 -41 -123 -46
-44 -129 -70 -248 -78 -95 -6 -164 9 -210 44 -18 14 -33 20 -33 13 0 -6 15
-41 33 -78 27 -57 32 -62 35 -40 3 26 5 26 38 16 l36 -11 -4 -95 c-3 -89 -2
-97 19 -114 18 -14 21 -24 16 -50 -3 -18 -12 -40 -21 -49 -13 -16 -18 -16 -51
-2 -20 8 -46 26 -58 40 -13 14 -23 20 -23 14 0 -24 22 -51 58 -70 24 -14 29
-18 12 -14 -14 4 -59 7 -100 8 -62 1 -83 6 -120 28 -57 33 -85 64 -99 110 -16
49 2 92 72 166 38 40 53 63 50 77 -2 11 -5 56 -6 100 -1 44 -6 87 -10 95 -4 8
0 5 9 -7 9 -13 22 -23 29 -23 8 0 27 -12 44 -26 35 -29 45 -10 11 21 -24 21
-45 87 -37 109 12 30 35 16 67 -40 l31 -56 28 26 c16 15 50 34 77 42 72 21
212 29 258 14 46 -15 54 -8 26 20 -26 26 -20 34 25 34 29 0 31 2 17 12 -9 6
-28 15 -41 19 -20 6 -23 4 -18 -9 5 -13 -3 -11 -36 9 -23 15 -54 31 -69 36
-22 9 -32 27 -61 107 -19 53 -40 121 -48 151 -12 49 -12 54 5 67 21 15 36 10
36 -11z m1198 0 c-3 -3 -9 2 -12 12 -6 14 -5 15 5 6 7 -7 10 -15 7 -18z m32
21 c0 -3 -4 -8 -10 -11 -5 -3 -10 -1 -10 4 0 6 5 11 10 11 6 0 10 -2 10 -4z
m2495 -34 c-7 -8 -45 10 -40 19 4 5 14 3 25 -3 11 -7 17 -14 15 -16z m-3239
-32 c17 0 23 -24 21 -95 -2 -56 -4 -60 -27 -62 -14 -1 -19 0 -12 3 18 8 -14
44 -40 44 -10 0 -18 5 -18 10 0 13 16 13 41 0 10 -6 19 -7 19 -2 0 14 -26 33
-33 25 -4 -3 -7 -1 -7 6 0 7 -4 9 -10 6 -6 -3 -7 1 -4 10 4 10 14 15 25 12 12
-3 19 0 19 9 0 16 -76 57 -90 49 -6 -3 -10 3 -10 14 0 20 1 20 56 -4 31 -14
62 -25 70 -25z m459 -49 c-6 -30 -8 -33 -17 -17 -10 17 -3 80 10 101 10 15 15
-43 7 -84z m2745 54 c7 -8 8 -15 2 -15 -5 0 -15 7 -22 15 -7 8 -8 15 -2 15 5
0 15 -7 22 -15z m-2480 1 c0 -2 -7 -7 -16 -10 -8 -3 -12 -2 -9 4 6 10 25 14
25 6z m45 -16 c3 -5 -1 -10 -9 -10 -9 0 -16 5 -16 10 0 6 4 10 9 10 6 0 13 -4
16 -10z m2330 0 c3 -5 2 -10 -4 -10 -5 0 -13 5 -16 10 -3 6 -2 10 4 10 5 0 13
-4 16 -10z m69 -5 c3 -9 0 -15 -8 -15 -8 0 -16 7 -20 15 -3 9 0 15 8 15 8 0
16 -7 20 -15z m271 -8 c0 -26 -18 -25 -20 1 -1 12 3 21 9 19 6 -2 11 -11 11
-20z m-4240 -72 c18 -44 31 -83 29 -86 -2 -4 3 -9 11 -13 8 -3 15 -13 15 -23
0 -32 42 -105 57 -99 8 3 11 1 8 -4 -3 -6 -15 -10 -25 -10 -14 0 -29 18 -51
62 -27 54 -109 246 -109 256 0 2 7 2 16 0 10 -2 30 -35 49 -83z m693 59 c0
-18 -3 -22 -9 -13 -11 18 -11 39 0 39 5 0 9 -12 9 -26z m-694 -169 l54 -130
-26 -21 -26 -22 -43 95 c-24 52 -53 124 -66 160 l-22 65 25 20 24 20 13 -29
c7 -15 37 -86 67 -158z m1522 169 c-5 -12 -2 -15 10 -10 8 3 22 -1 30 -9 14
-13 9 -15 -43 -14 -32 1 -48 4 -35 6 14 3 22 12 22 24 0 10 5 19 11 19 6 0 8
-7 5 -16z m2334 6 c0 -5 -4 -10 -10 -10 -5 0 -10 5 -10 10 0 6 5 10 10 10 6 0
10 -4 10 -10z m-3825 -52 c26 -56 32 -83 15 -73 -11 7 -37 64 -46 102 -10 40
6 25 31 -29z m695 43 c0 -6 -4 -12 -8 -15 -5 -3 -9 1 -9 9 0 8 4 15 9 15 4 0
8 -4 8 -9z m3100 -11 c0 -5 -8 -10 -17 -10 -15 0 -16 2 -3 10 19 12 20 12 20
0z m102 -2 c-9 -9 -15 -9 -24 0 -9 9 -7 12 12 12 19 0 21 -3 12 -12z m-2667
-98 c9 -10 15 -22 12 -27 -2 -4 4 -17 14 -27 19 -19 19 -19 19 23 0 38 2 42
23 39 19 -3 22 -9 22 -48 0 -53 8 -58 81 -59 39 -1 53 -5 58 -18 6 -15 8 -15
16 -3 7 11 10 3 10 -28 0 -59 -37 -82 -135 -82 -116 1 -179 42 -162 107 3 12
5 9 6 -9 0 -15 4 -29 9 -31 11 -7 3 182 -8 203 -6 10 -10 27 -10 37 1 10 7 1
14 -20 8 -21 22 -47 31 -57z m2595 70 c12 -8 11 -10 -7 -10 -13 0 -23 5 -23
10 0 13 11 13 30 0z m492 -12 c-6 -6 -15 -8 -19 -4 -4 4 -1 11 7 16 19 12 27
3 12 -12z m-10892 -208 l0 -210 -60 0 c-55 0 -60 2 -60 22 l0 22 -20 -21 c-39
-43 -109 -42 -151 3 -20 21 -24 38 -27 100 -5 95 3 135 33 168 34 36 105 37
140 1 l25 -24 0 74 0 75 60 0 60 0 0 -210z m385 199 c42 -11 44 -13 51 -56 3
-24 4 -46 1 -49 -3 -3 -22 0 -44 6 -55 17 -127 10 -131 -13 -3 -13 9 -23 45
-38 26 -11 65 -27 86 -36 49 -21 71 -62 64 -120 -8 -76 -63 -113 -167 -113
-53 0 -122 18 -132 34 -4 6 -8 30 -8 53 l0 41 47 -14 c128 -39 203 10 86 56
-91 36 -121 57 -133 96 -39 119 75 193 235 153z m1065 -199 l0 -210 -55 0
c-48 0 -55 2 -55 20 0 11 -4 20 -10 20 -5 0 -10 -5 -10 -10 0 -6 -16 -18 -35
-27 -46 -22 -100 -9 -129 30 -29 39 -36 172 -11 227 28 63 114 82 160 36 29
-29 35 -19 35 65 l0 59 55 0 55 0 0 -210z m-2450 158 c33 -129 44 -164 50
-171 3 -4 14 27 24 69 10 42 22 92 28 110 l9 34 78 0 78 0 6 -142 c4 -79 7
-171 7 -205 l0 -63 -55 0 -55 0 -1 108 c-1 59 -4 118 -8 132 -6 21 -9 15 -20
-35 -8 -33 -20 -81 -28 -107 l-14 -48 -49 0 -49 0 -12 43 c-6 23 -19 71 -28
106 l-18 65 -6 -64 c-4 -34 -7 -94 -7 -131 l0 -69 -57 0 -56 0 6 137 c4 75 7
167 7 205 l0 68 80 0 79 0 11 -42z m11595 25 c16 -15 16 -18 -5 -33 -16 -12
-32 -15 -54 -11 -35 8 -35 19 3 43 33 21 36 21 56 1z m-9965 -33 l0 -40 50 0
c54 0 55 -2 44 -58 -6 -28 -10 -31 -48 -34 l-41 -3 -3 -53 c-4 -69 9 -86 60
-79 l38 5 0 -36 c0 -21 -4 -42 -8 -49 -11 -18 -96 -26 -136 -13 -50 16 -66 52
-66 145 0 68 -2 77 -20 82 -16 4 -20 14 -20 49 0 37 3 44 20 44 16 0 20 7 20
34 0 34 1 35 48 39 26 2 50 4 55 5 4 1 7 -16 7 -38z m1718 -3 c3 -36 4 -37 46
-37 23 0 45 -2 47 -4 3 -3 3 -23 1 -45 -4 -39 -5 -40 -46 -43 l-41 -3 -3 -62
c-3 -60 -2 -63 23 -69 14 -3 37 -3 51 0 26 7 26 6 19 -36 -4 -24 -11 -47 -17
-53 -5 -5 -38 -10 -74 -10 -60 0 -68 3 -90 28 -21 24 -24 38 -24 105 0 81 -4
95 -32 105 -9 3 -15 14 -13 24 2 10 4 28 4 41 1 15 7 22 21 22 16 0 20 7 20
34 0 34 1 35 43 39 60 5 62 4 65 -36z m5492 13 c0 -5 -2 -10 -4 -10 -3 0 -8 5
-11 10 -3 6 -1 10 4 10 6 0 11 -4 11 -10z m2705 -56 c-10 -7 -22 -11 -27 -8
-5 3 -1 12 9 19 10 7 22 11 27 8 5 -4 1 -12 -9 -19z m45 1 c-7 -9 -15 -13 -19
-10 -3 3 1 10 9 15 21 14 24 12 10 -5z m94 3 c-3 -4 -9 -8 -15 -8 -5 0 -9 4
-9 8 0 5 7 9 15 9 8 0 12 -4 9 -9z m-11098 -23 c37 -28 57 -81 52 -135 l-3
-35 -97 -3 c-56 -1 -98 -7 -98 -13 0 -19 56 -31 123 -26 l68 6 -3 -37 c-3 -33
-7 -38 -43 -50 -46 -16 -139 -11 -181 9 -46 23 -68 62 -72 132 -8 122 41 177
157 177 53 0 70 -4 97 -25z m1296 -87 l3 -113 29 -3 c16 -2 33 1 39 7 5 5 9
49 8 98 -3 120 -1 123 65 123 l54 0 0 -160 0 -160 -55 0 -55 0 0 33 -1 32 -14
-26 c-31 -57 -128 -62 -166 -9 -20 28 -22 43 -20 188 l1 102 55 0 54 0 3 -112z
m858 97 c46 -24 66 -75 62 -157 l-2 -28 -95 0 c-95 0 -115 -8 -73 -31 14 -8
47 -9 96 -5 l74 6 -7 -38 c-4 -20 -12 -40 -18 -44 -20 -12 -115 -21 -154 -13
-91 17 -123 57 -124 157 -1 77 10 107 51 141 27 23 41 27 96 27 39 0 77 -6 94
-15z m222 -19 l-3 -30 29 32 c25 27 38 32 74 32 87 0 108 -41 108 -212 l0
-108 -60 0 -59 0 -3 106 c-3 89 -6 109 -20 118 -13 8 -23 8 -35 0 -15 -9 -18
-29 -21 -118 l-3 -106 -59 0 -60 0 0 153 c0 85 3 157 7 161 4 4 30 6 58 4 49
-3 50 -4 47 -32z m8652 22 c-5 -8 -1 -9 12 -4 14 5 16 4 7 -5 -13 -13 -37 -3
-28 12 4 5 8 9 11 9 3 0 2 -5 -2 -12z m-364 -12 c0 -2 -8 -10 -17 -17 -16 -13
-17 -12 -4 4 13 16 21 21 21 13z m15 -46 c-3 -5 -16 -15 -28 -21 -22 -12 -22
-12 -3 10 19 21 43 30 31 11z m85 0 c0 -5 -8 -10 -17 -10 -15 0 -16 2 -3 10
19 12 20 12 20 0z m-685 -30 c3 -5 1 -10 -4 -10 -6 0 -11 5 -11 10 0 6 2 10 4
10 3 0 8 -4 11 -10z m1152 4 c-3 -3 -12 -4 -19 -1 -8 3 -5 6 6 6 11 1 17 -2
13 -5z m-1237 -14 c0 -5 -4 -10 -10 -10 -5 0 -10 5 -10 10 0 6 5 10 10 10 6 0
10 -4 10 -10z m30 0 c0 -5 -2 -10 -4 -10 -3 0 -8 5 -11 10 -3 6 -1 10 4 10 6
0 11 -4 11 -10z m610 -14 c0 -2 -11 -3 -24 -2 -14 0 -22 6 -19 13 4 9 10 10
24 2 10 -5 19 -11 19 -13z m150 9 c-7 -8 -18 -15 -24 -15 -6 0 -2 7 8 15 25
19 32 19 16 0z m-2900 -15 c13 -8 13 -10 -2 -10 -9 0 -20 5 -23 10 -8 13 5 13
25 0z m890 -42 c0 -6 8 -17 18 -24 15 -12 14 -13 -11 -4 -16 5 -38 15 -50 22
-21 11 -21 11 -2 18 23 8 45 2 45 -12z m1280 2 c0 -5 -5 -10 -11 -10 -5 0 -7
5 -4 10 3 6 8 10 11 10 2 0 4 -4 4 -10z m-2225 -89 l70 -31 -2 -54 c0 -30 -6
-63 -12 -74 -6 -11 -11 -45 -11 -76 0 -30 -4 -58 -10 -61 -5 -3 -10 -2 -10 4
0 25 -34 0 -50 -37 -26 -58 -32 -53 -10 7 19 48 19 48 -3 69 -45 40 -174 91
-198 76 -6 -3 4 -16 22 -30 18 -13 30 -24 26 -24 -4 0 -3 -8 2 -18 7 -13 5
-28 -6 -50 -15 -30 -33 -43 -33 -23 0 5 -18 33 -41 61 l-41 52 34 29 c18 15
37 28 41 29 19 1 168 -63 194 -83 15 -12 22 -14 16 -6 -7 9 -26 40 -41 70 -16
30 -39 72 -50 94 -14 25 -22 57 -22 87 l0 48 33 -14 c17 -7 64 -28 102 -45z
m255 55 c0 -3 -4 -8 -10 -11 -5 -3 -10 -1 -10 4 0 6 5 11 10 11 6 0 10 -2 10
-4z m1920 -50 c0 -3 -4 -8 -10 -11 -5 -3 -10 -1 -10 4 0 6 5 11 10 11 6 0 10
-2 10 -4z m-1715 -26 c-3 -5 -12 -7 -20 -3 -21 7 -19 13 6 13 11 0 18 -4 14
-10z m2783 -16 c13 -4 22 -14 22 -25 0 -26 -33 -41 -63 -30 -35 14 -43 32 -22
48 21 14 30 16 63 7z m-3472 -48 c-7 -36 -45 -89 -75 -106 -28 -14 -14 46 14
64 13 9 26 25 30 36 4 11 11 18 16 15 5 -4 9 4 9 16 0 12 3 20 6 16 4 -3 3
-22 0 -41z m974 -31 c-11 -39 -20 -73 -20 -77 0 -5 -5 -8 -11 -8 -7 0 -9 10
-5 25 10 39 48 137 51 133 2 -2 -5 -35 -15 -73z m1395 65 c3 -5 1 -10 -4 -10
-6 0 -11 5 -11 10 0 6 2 10 4 10 3 0 8 -4 11 -10z m-1477 -10 c6 0 12 -7 12
-16 0 -11 -5 -14 -17 -9 -10 4 -26 10 -35 12 -27 8 -22 26 5 19 12 -3 28 -6
35 -6z m1502 -10 c-8 -5 -19 -10 -25 -10 -5 0 -3 5 5 10 8 5 20 10 25 10 6 0
3 -5 -5 -10z m-1717 -117 c26 -3 47 -10 47 -16 0 -6 8 -19 18 -30 16 -19 16
-19 -8 -12 -30 9 -72 30 -114 57 -17 11 -22 17 -11 13 11 -4 41 -10 68 -12z
m2427 7 c0 -5 -5 -10 -11 -10 -5 0 -7 5 -4 10 3 6 8 10 11 10 2 0 4 -4 4 -10z
m35 -30 c3 -5 -1 -10 -9 -10 -9 0 -16 5 -16 10 0 6 4 10 9 10 6 0 13 -4 16
-10z m452 -12 c2 -17 0 -19 -7 -8 -5 8 -6 18 -4 22 8 12 10 10 11 -14z m-3668
-55 c1 -17 6 -35 11 -38 7 -4 8 3 4 22 -7 26 -6 27 10 14 10 -8 29 -37 42 -64
20 -39 24 -59 21 -104 -4 -48 -9 -61 -36 -85 -37 -33 -62 -37 -35 -6 15 18 15
20 2 9 -22 -16 -95 -24 -104 -10 -9 15 5 79 18 79 6 0 16 8 23 17 11 14 10 19
-1 28 -8 5 -20 47 -27 92 l-13 82 35 15 c41 16 49 8 50 -51z m3241 37 c-8 -5
-19 -10 -25 -10 -5 0 -3 5 5 10 8 5 20 10 25 10 6 0 3 -5 -5 -10z m-1836 -26
c43 -17 -5 -60 -54 -49 -35 8 -47 22 -31 38 9 9 11 8 6 -5 -5 -12 1 -18 24
-23 34 -7 51 -1 51 20 0 8 -14 15 -32 18 -28 3 -29 4 -6 5 14 1 33 -1 42 -4z
m1863 0 c-3 -3 -12 -4 -19 -1 -8 3 -5 6 6 6 11 1 17 -2 13 -5z m-67 -24 c0 -5
-2 -10 -4 -10 -3 0 -8 5 -11 10 -3 6 -1 10 4 10 6 0 11 -4 11 -10z m-495 -80
c3 -6 -4 -10 -17 -10 -18 0 -20 2 -8 10 19 12 18 12 25 0z m-2352 -68 c1 -34
-1 -62 -5 -62 -4 0 -7 -3 -7 -7 5 -28 -8 -49 -58 -100 -32 -31 -51 -53 -43
-48 9 5 7 -1 -4 -13 -12 -14 -27 -20 -43 -18 -13 3 -55 -4 -93 -15 -84 -23
-117 -25 -101 -6 6 8 12 22 15 33 13 66 20 83 40 93 90 46 128 81 88 81 -11 0
-22 -5 -24 -11 -2 -7 -8 -6 -17 4 -11 14 -5 18 40 32 31 9 68 29 89 49 44 42
70 44 70 5 0 -15 -5 -40 -10 -56 -10 -27 -9 -27 5 -8 9 11 23 41 33 67 9 26
18 46 19 44 2 -1 4 -30 6 -64z m2427 48 c0 -5 -4 -10 -10 -10 -5 0 -10 5 -10
10 0 6 5 10 10 10 6 0 10 -4 10 -10z m50 -70 c0 -5 -7 -7 -15 -4 -8 4 -15 8
-15 10 0 2 7 4 15 4 8 0 15 -4 15 -10z m-3563 -37 c-3 -10 -5 -4 -5 12 0 17 2
24 5 18 2 -7 2 -21 0 -30z m3638 27 c3 -5 -1 -10 -10 -10 -9 0 -13 5 -10 10 3
6 8 10 10 10 2 0 7 -4 10 -10z m-3546 -84 c61 -41 144 -74 214 -84 l52 -7 3
-48 3 -47 -33 0 c-19 0 -58 6 -88 14 -30 8 -56 13 -58 11 -7 -6 95 -35 153
-44 51 -7 54 -9 21 -10 -90 -3 -238 52 -286 105 l-25 28 35 -24 35 -24 -42 46
c-42 47 -61 88 -48 107 8 15 6 15 64 -23z m4282 16 c15 3 26 1 23 -4 -9 -15
-71 -8 -85 9 -13 15 -12 15 10 4 13 -7 36 -11 52 -9z m-2401 -153 c43 -29 78
-54 77 -56 -2 -1 -31 11 -65 27 -34 17 -65 30 -70 30 -21 0 -91 73 -97 100 -4
16 -11 32 -16 35 -5 4 -9 11 -9 16 0 6 22 -14 50 -44 27 -30 86 -79 130 -108z
m355 85 c61 -29 99 -51 85 -48 -29 8 -220 103 -205 103 6 0 60 -25 120 -55z
m-1190 26 c10 -11 30 -60 45 -110 31 -105 50 -134 83 -124 12 4 25 11 28 16 3
5 10 9 15 9 11 -1 11 5 0 42 -10 35 8 80 39 97 20 11 30 9 70 -11 26 -13 56
-33 68 -45 12 -12 50 -40 85 -62 l64 -41 30 35 c38 43 89 70 150 79 59 9 70
-8 15 -24 -57 -17 -105 -48 -112 -72 -4 -11 -22 -35 -40 -54 l-34 -34 44 -21
c25 -12 54 -33 65 -47 14 -18 24 -23 32 -16 26 19 101 34 139 28 46 -8 42 -19
-18 -50 -21 -11 -40 -22 -43 -25 -5 -5 -88 -71 -119 -94 -12 -9 -12 -7 -2 12
21 39 7 35 -27 -7 -38 -48 -120 -89 -190 -98 -53 -6 -182 20 -182 37 0 5 24
22 53 38 60 34 117 79 117 93 0 6 -19 -3 -42 -19 -24 -16 -68 -42 -98 -57 -30
-15 -58 -32 -61 -37 -7 -10 -33 13 -49 43 -13 24 -38 25 -36 2 0 -11 -19 -29
-54 -50 -30 -19 -55 -38 -55 -43 0 -5 -20 -25 -45 -45 l-45 -37 44 41 c64 60
40 50 -57 -24 -47 -36 -88 -63 -91 -59 -3 3 30 39 74 80 44 40 79 78 78 83 -2
6 2 23 8 38 15 40 13 106 -5 139 -18 34 -56 75 -117 126 -77 63 -89 75 -89 85
0 6 30 28 66 49 37 22 90 65 118 96 28 32 54 58 57 58 3 0 14 -9 24 -20z
m3429 -9 c7 -10 -49 -33 -58 -24 -3 4 -1 12 5 20 13 15 45 17 53 4z m-514
-146 c7 -8 16 -12 21 -10 4 3 51 -13 104 -36 69 -29 107 -40 131 -37 19 2 34
2 34 -2 -1 -15 -19 -32 -29 -26 -6 4 -11 5 -11 1 0 -3 10 -10 23 -15 16 -6 6
-8 -35 -5 -32 2 -58 2 -58 -1 0 -3 15 -11 33 -19 17 -8 25 -14 17 -14 -8 0
-31 8 -50 19 l-35 18 28 11 c16 6 34 11 40 11 7 1 -1 7 -18 14 -16 6 -49 11
-73 10 -39 -3 -44 -1 -39 16 3 11 1 20 -5 20 -5 0 -16 7 -25 16 -9 8 -21 13
-27 11 -7 -3 -23 4 -37 14 -13 10 -19 19 -13 19 6 0 17 -7 24 -15z m223 -15
c-3 -12 0 -20 8 -20 7 0 10 -2 7 -5 -3 -3 -13 -3 -22 1 -19 7 -21 30 -3 37 6
3 13 6 14 6 0 1 -1 -8 -4 -19z m-1213 -40 c-19 -13 -30 -13 -30 0 0 6 10 10
23 10 18 0 19 -2 7 -10z m-895 -18 c-3 -3 -11 0 -18 7 -9 10 -8 11 6 5 10 -3
15 -9 12 -12z m172 -57 c120 -62 106 -63 -37 -3 -104 44 -127 58 -92 58 12 0
70 -25 129 -55z m912 36 c9 -6 4 -10 -18 -13 -30 -4 -39 1 -24 15 9 9 25 8 42
-2z m921 -1 c-20 -13 5 -14 29 -1 10 6 23 6 32 0 10 -6 7 -9 -13 -9 -14 0 -28
-5 -30 -11 -2 -7 -12 -7 -32 2 -25 12 -26 14 -9 20 27 11 40 10 23 -1z m-2045
-65 c-51 -22 -82 -26 -40 -5 22 11 47 19 55 19 8 0 2 -6 -15 -14z m2208 -12
c-7 -2 -19 -2 -25 0 -7 3 -2 5 12 5 14 0 19 -2 13 -5z m-1647 -97 c141 -48
188 -70 280 -132 97 -64 208 -184 185 -199 -6 -3 -57 38 -113 92 -57 54 -123
108 -146 121 -57 31 -53 21 6 -16 26 -17 62 -47 81 -66 27 -28 10 -20 -82 41
-116 75 -137 94 -81 73 17 -7 25 -7 19 -1 -8 8 -72 38 -235 109 -47 20 -14 12
86 -22z m474 14 c8 -5 11 -10 5 -10 -5 0 -17 5 -25 10 -8 5 -10 10 -5 10 6 0
17 -5 25 -10z m1040 -216 c0 -11 -5 -14 -16 -10 -9 3 -18 6 -20 6 -3 0 -2 5 1
10 10 16 35 12 35 -6z"/>
<path d="M10595 2520 c-8 -13 5 -13 25 0 13 8 13 10 -2 10 -9 0 -20 -4 -23
-10z"/>
<path d="M1920 2310 c-41 -41 -20 -140 29 -140 31 0 42 25 39 86 -3 49 -6 58
-26 65 -17 6 -27 4 -42 -11z"/>
<path d="M3572 2318 c-25 -25 -13 -38 34 -38 41 0 45 2 42 23 -2 16 -11 23
-33 25 -17 2 -36 -3 -43 -10z"/>
<path d="M5081 2308 c-8 -22 -6 -23 36 -26 25 -2 48 0 51 3 13 13 -17 40 -47
43 -25 3 -33 -1 -40 -20z"/>
<path d="M5430 2311 c-15 -30 -14 -31 40 -31 34 0 50 4 50 13 0 38 -71 52 -90
18z"/>
<path d="M10367 2363 c-4 -3 -7 -11 -7 -17 0 -6 5 -5 12 2 6 6 9 14 7 17 -3 3
-9 2 -12 -2z"/>
<path d="M10865 2117 c-16 -13 -15 -14 14 -15 27 -1 30 2 20 14 -14 17 -11 17
-34 1z"/>
<path d="M10556 2115 c4 -8 8 -15 10 -15 2 0 4 7 4 15 0 8 -4 15 -10 15 -5 0
-7 -7 -4 -15z"/>
<path d="M9760 1990 c0 -5 18 -10 39 -10 22 0 43 5 46 10 4 6 -12 10 -39 10
-25 0 -46 -4 -46 -10z"/>
<path d="M9330 1366 c0 -2 8 -10 18 -17 15 -13 16 -12 3 4 -13 16 -21 21 -21
13z"/>
<path d="M9295 1326 c-10 -7 -15 -18 -11 -24 3 -5 1 -12 -6 -14 -15 -5 -19
-38 -4 -38 19 0 56 39 56 60 0 26 -13 32 -35 16z"/>
<path d="M8677 1061 c-23 -22 -39 -42 -36 -46 12 -11 136 -18 154 -8 15 9 12
11 -15 16 -17 4 -29 11 -25 17 3 5 -1 10 -10 10 -9 0 -13 5 -10 10 3 6 2 10
-4 10 -6 0 -8 7 -5 15 10 24 -4 18 -49 -24z"/>
<path d="M8900 963 c6 -13 20 -27 33 -33 20 -10 21 -10 4 4 -10 8 -25 23 -33
33 -14 17 -14 16 -4 -4z"/>
<path d="M2000 1501 c-14 -27 -13 -94 2 -109 20 -20 66 -15 79 9 15 28 3 105
-17 113 -29 11 -53 6 -64 -13z"/>
<path d="M3450 1501 c-5 -11 -10 -34 -10 -51 0 -46 16 -70 48 -70 37 0 52 17
52 56 0 57 -16 84 -49 84 -20 0 -34 -7 -41 -19z"/>
<path d="M12751 1670 c-9 -5 -7 -9 8 -13 12 -3 23 -2 26 3 7 11 -19 20 -34 10z"/>
<path d="M1653 1524 c-7 -3 -13 -14 -13 -25 0 -16 7 -19 46 -19 41 0 45 2 42
23 -2 17 -10 22 -33 24 -16 1 -36 0 -42 -3z"/>
<path d="M3810 1511 c-15 -30 -14 -31 40 -31 34 0 50 4 50 13 0 38 -71 52 -90
18z"/>
<path d="M12820 1290 c-12 -8 -9 -10 13 -10 15 0 27 5 27 10 0 13 -20 13 -40
0z"/>
<path d="M9351 1227 c-13 -21 -12 -21 5 -5 10 10 16 20 13 22 -3 3 -11 -5 -18
-17z"/>
<path d="M10309 609 c-23 -19 -23 -20 -2 -10 12 6 25 16 28 21 10 16 -1 12
-26 -11z"/>
<path d="M9926 584 c-4 -11 11 -23 62 -46 37 -18 87 -48 112 -67 25 -19 47
-36 49 -38 2 -1 -2 -9 -9 -18 -10 -12 -9 -16 4 -21 13 -5 14 -9 5 -20 -16 -20
-10 -23 66 -41 45 -10 65 -19 62 -28 -4 -10 0 -10 19 -1 32 15 41 44 18 61
-11 7 -22 11 -25 9 -4 -2 -9 3 -13 11 -3 8 -14 15 -24 15 -10 0 -27 6 -37 14
-17 12 -18 18 -8 50 16 51 6 45 -23 -16 -24 -49 -25 -51 -21 -18 3 19 7 41 9
48 2 8 -27 29 -69 52 -40 22 -73 37 -73 34 0 -2 -18 5 -40 16 -47 24 -56 25
-64 4z"/>
<path d="M12848 493 c7 -3 16 -2 19 1 4 3 -2 6 -13 5 -11 0 -14 -3 -6 -6z"/>
<path d="M12070 3186 c-20 -8 -55 -17 -79 -21 -41 -7 -42 -8 -36 -38 4 -18 18
-49 32 -70 22 -36 26 -37 37 -21 13 17 14 16 20 -4 4 -12 4 -27 0 -33 -4 -7
-1 -10 7 -7 8 3 13 14 12 25 -1 12 9 26 28 37 20 12 28 23 25 33 -3 8 -6 23
-6 33 0 14 -5 17 -22 12 -28 -7 -47 -30 -48 -57 l-1 -20 -9 20 c-12 28 -12 47
0 40 6 -3 10 0 10 7 0 8 19 21 43 29 23 9 43 23 45 32 4 20 -10 20 -58 3z"/>
<path d="M11815 3160 c-8 -14 20 -61 93 -158 129 -171 154 -216 172 -316 16
-95 13 -124 -18 -165 -47 -60 -69 -104 -76 -149 -13 -88 -90 -167 -268 -278
-235 -146 -435 -227 -673 -274 -54 -11 -140 -35 -325 -92 -79 -24 -157 -82
-190 -140 l-23 -43 49 46 c27 25 69 57 94 71 57 33 245 98 279 97 14 0 20 -3
13 -6 -6 -2 -10 -9 -7 -14 4 -5 0 -6 -8 -3 -18 7 -143 -30 -222 -66 -56 -25
-146 -90 -154 -112 -2 -5 18 7 45 27 59 45 140 86 234 119 84 30 96 31 78 12
-7 -8 -15 -14 -18 -13 -14 2 -90 -28 -90 -36 0 -5 -7 -7 -15 -3 -8 3 -15 2
-15 -3 0 -5 -12 -16 -26 -26 -22 -14 -28 -15 -36 -4 -8 11 -9 10 -5 -3 4 -12
-9 -25 -50 -48 -30 -17 -53 -33 -52 -35 7 -6 123 -67 199 -106 41 -20 118 -54
170 -73 52 -20 110 -43 128 -51 46 -21 52 -19 17 5 l-30 20 70 -6 c39 -4 80
-7 92 -7 12 1 24 -6 27 -14 5 -11 15 -14 40 -9 20 4 37 2 41 -4 3 -5 -2 -10
-12 -11 -10 0 -13 -3 -6 -5 6 -3 24 3 39 13 28 18 28 18 20 -2 -5 -11 -9 -25
-9 -32 0 -7 -4 -10 -9 -7 -4 3 -8 -6 -8 -20 0 -14 5 -26 12 -26 6 0 9 -2 7 -5
-3 -2 -15 -2 -27 2 -19 5 -20 8 -10 21 12 14 11 14 -10 1 -22 -13 -19 -16 75
-61 l98 -47 7 37 c13 68 11 72 -22 65 -19 -3 -30 -1 -30 6 0 6 13 11 29 11 29
0 41 18 41 63 0 14 -5 17 -22 12 -21 -5 -20 -4 5 15 29 23 38 74 15 83 -8 3
-5 6 5 6 12 1 17 7 15 19 -1 9 1 23 5 30 5 7 3 12 -6 12 -20 0 -29 28 -17 48
8 15 9 15 10 -2 0 -16 2 -17 16 -5 10 8 12 15 5 17 -15 5 -14 22 2 22 8 0 28
20 46 45 43 59 94 93 280 185 86 43 257 140 381 217 219 136 477 289 552 327
20 10 46 27 56 37 11 10 23 15 26 12 3 -4 6 -1 6 6 0 7 5 9 12 5 6 -4 9 -3 5
2 -3 5 40 36 94 69 55 32 112 73 127 89 26 29 26 29 -23 -5 -52 -37 -271 -171
-660 -404 -322 -193 -330 -198 -520 -293 -181 -90 -237 -124 -300 -181 l-40
-36 35 38 c55 61 141 117 330 214 150 77 777 446 804 473 10 10 -57 43 -174
86 -103 39 -108 43 -145 121 -19 40 -41 73 -49 73 -7 0 -19 7 -26 15 -16 19 5
49 31 42 18 -5 52 27 41 39 -4 4 -1 4 6 0 15 -9 72 30 72 50 0 9 -7 22 -15 30
-8 9 -15 21 -14 27 0 9 2 8 6 0 6 -17 23 -16 23 1 0 18 -17 24 -54 20 -39 -4
-62 15 -62 51 1 32 16 37 64 21 19 -6 22 -4 23 21 1 15 1 31 0 35 0 4 8 12 19
18 25 13 26 30 2 30 -10 0 -24 6 -31 13 -10 10 -11 7 -6 -14 8 -33 -1 -39 -42
-27 -40 10 -48 48 -11 48 35 0 9 16 -54 34 -31 9 -60 16 -65 16 -4 0 -8 -28
-7 -62 0 -53 3 -63 21 -71 15 -6 21 -17 20 -35 -4 -45 -66 -50 -181 -17 -31 9
-56 21 -56 27 0 7 -4 7 -13 -1 -9 -7 -17 -7 -24 0 -7 7 -12 6 -16 -5 -7 -19
48 -77 67 -70 7 3 18 -7 24 -21 6 -14 17 -25 24 -26 7 0 4 -4 -7 -8 -18 -8
-17 -10 15 -25 28 -13 30 -15 10 -12 -14 2 -34 7 -45 11 -15 5 -14 1 8 -19 33
-31 80 -36 70 -8 -4 11 -3 14 4 7 6 -5 13 -22 17 -37 5 -22 3 -25 -12 -21 -9
2 -34 -8 -54 -24 l-36 -28 1 -147 c2 -169 -1 -177 -92 -239 -29 -20 -54 -40
-55 -45 -7 -48 -409 -313 -485 -320 -14 -1 -70 -21 -124 -44 -96 -40 -264 -84
-296 -77 -9 2 19 12 62 22 42 10 72 22 66 25 -15 10 78 34 124 33 20 0 37 3
37 7 0 4 57 40 127 80 169 96 383 240 417 280 35 43 53 77 61 124 4 21 22 57
39 79 82 108 77 91 61 210 -8 59 -23 126 -33 150 -18 40 -229 367 -237 367 -2
0 -7 -5 -10 -10z m525 -284 c0 -8 -4 -18 -10 -21 -5 -3 -10 3 -10 14 0 12 5
21 10 21 6 0 10 -6 10 -14z m4 -92 c9 -3 16 -14 16 -23 0 -11 3 -12 8 -4 4 7
17 10 30 6 23 -6 29 -18 12 -28 -5 -3 -10 -1 -10 4 0 6 -4 11 -10 11 -5 0 -7
-6 -4 -14 4 -11 -2 -14 -28 -11 -18 2 -27 1 -20 -2 16 -6 16 -33 -1 -33 -22 0
-38 46 -27 75 10 27 11 28 34 19z m106 -53 c0 -12 -20 -25 -27 -18 -7 7 6 27
18 27 5 0 9 -4 9 -9z m-122 -57 c24 -37 26 -74 5 -81 -7 -3 -16 13 -23 36 -6
22 -15 43 -20 46 -6 3 -10 13 -10 21 0 25 25 15 48 -22z m-108 -94 c0 -5 -2
-10 -4 -10 -3 0 -8 5 -11 10 -3 6 -1 10 4 10 6 0 11 -4 11 -10z m50 0 c0 -5
-5 -10 -11 -10 -5 0 -7 5 -4 10 3 6 8 10 11 10 2 0 4 -4 4 -10z m35 -40 c-3
-5 -10 -10 -16 -10 -5 0 -9 5 -9 10 0 6 7 10 16 10 8 0 12 -4 9 -10z m-25 -61
c0 -5 7 -9 15 -9 8 0 15 -7 15 -15 0 -13 -6 -11 -30 7 -32 23 -40 41 -15 32 8
-4 15 -10 15 -15z m80 -39 c-19 -13 -30 -13 -30 0 0 6 10 10 23 10 18 0 19 -2
7 -10z m90 -20 c0 -5 -4 -10 -10 -10 -5 0 -10 5 -10 10 0 6 5 10 10 10 6 0 10
-4 10 -10z m-83 -7 c-4 -3 -2 -12 4 -20 9 -9 8 -13 0 -13 -6 0 -11 5 -11 11 0
6 -9 8 -20 4 -21 -7 -28 10 -7 18 18 8 41 8 34 0z m43 -13 c0 -5 -4 -10 -9
-10 -6 0 -13 5 -16 10 -3 6 1 10 9 10 9 0 16 -4 16 -10z m23 -52 c-2 -5 -12
-8 -21 -8 -15 0 -15 2 -2 10 12 8 10 10 -10 11 -22 0 -23 1 -5 8 20 8 47 -7
38 -21z m-73 3 c0 -6 -4 -13 -10 -16 -5 -3 -10 1 -10 9 0 9 5 16 10 16 6 0 10
-4 10 -9z m-33 -55 c-6 -8 -15 -12 -19 -9 -4 2 -2 10 5 17 6 8 15 12 19 9 4
-2 2 -10 -5 -17z m-53 -21 c-6 -16 -24 -21 -24 -7 0 11 11 22 21 22 5 0 6 -7
3 -15z m149 1 c3 -8 -5 -18 -19 -25 -33 -15 -44 -14 -44 3 0 9 9 12 28 10 15
-2 19 -1 10 2 -10 3 -18 10 -18 15 0 14 37 11 43 -5z m-68 -36 c18 -19 17 -20
-3 -20 -15 0 -22 6 -22 20 0 11 2 20 3 20 2 0 12 -9 22 -20z m-102 -24 c19 7
51 -21 42 -36 -9 -14 -21 -12 -40 6 -13 14 -21 15 -41 5 -35 -16 -37 -14 -17
13 12 16 22 21 29 15 6 -5 19 -7 27 -3z m197 -32 c0 -2 -7 -4 -15 -4 -8 0 -15
4 -15 10 0 5 7 7 15 4 8 -4 15 -8 15 -10z m-115 -4 c3 -5 -1 -10 -10 -10 -9 0
-13 5 -10 10 3 6 8 10 10 10 2 0 7 -4 10 -10z m30 -29 c-3 -6 -11 -11 -17 -11
-6 0 -6 6 2 15 14 17 26 13 15 -4z m50 9 c3 -5 -1 -10 -9 -10 -9 0 -16 5 -16
10 0 6 4 10 9 10 6 0 13 -4 16 -10z m-115 -34 c-6 -8 -18 -12 -27 -9 -12 5
-12 7 -1 14 7 5 19 9 27 9 11 0 11 -3 1 -14z m-240 -96 c-8 -5 -17 -7 -19 -4
-3 3 1 9 9 14 8 5 17 7 19 4 3 -3 -1 -9 -9 -14z m-33 -22 c-3 -8 -6 -5 -6 6
-1 11 2 17 5 13 3 -3 4 -12 1 -19z m23 -68 c0 -13 -11 -13 -30 0 -12 8 -11 10
8 10 12 0 22 -4 22 -10z m-370 -100 c0 -5 -5 -10 -11 -10 -5 0 -7 5 -4 10 3 6
8 10 11 10 2 0 4 -4 4 -10z m-45 -140 c3 -6 -1 -7 -9 -4 -18 7 -21 14 -7 14 6
0 13 -4 16 -10z m-735 -30 c0 -5 -5 -10 -11 -10 -5 0 -7 5 -4 10 3 6 8 10 11
10 2 0 4 -4 4 -10z m97 -37 c-3 -10 -5 -4 -5 12 0 17 2 24 5 18 2 -7 2 -21 0
-30z m618 -14 c0 -8 -8 -13 -17 -11 -10 2 -18 -3 -18 -11 0 -17 -28 -43 -37
-34 -8 8 49 76 62 73 6 -2 10 -9 10 -17z m-880 -55 c17 -4 35 -8 40 -8 6 -1
13 -5 17 -11 5 -6 12 -5 20 3 20 20 32 13 13 -8 -11 -12 -25 -18 -36 -15 -9 3
-21 0 -25 -6 -4 -8 -3 -9 4 -5 7 4 12 3 12 -3 0 -20 -19 -21 -29 -2 -8 14 -8
21 2 25 6 3 -2 3 -20 0 -17 -3 -34 0 -38 5 -4 7 0 8 11 4 12 -4 15 -3 10 5 -9
15 -41 15 -68 1 -34 -18 -31 -3 4 19 18 12 37 17 43 13 5 -5 24 -12 40 -17z
m426 -14 c15 -9 17 -15 9 -30 -13 -24 -66 -27 -95 -7 -17 13 -17 15 6 30 27
20 52 21 80 7z m244 -20 c-3 -5 -11 -10 -16 -10 -6 0 -7 5 -4 10 3 6 11 10 16
10 6 0 7 -4 4 -10z m-175 -10 c0 -5 -4 -10 -10 -10 -5 0 -10 5 -10 10 0 6 5
10 10 10 6 0 10 -4 10 -10z m-515 -18 c-3 -3 -11 0 -18 7 -9 10 -8 11 6 5 10
-3 15 -9 12 -12z m625 8 c0 -5 -7 -7 -15 -4 -8 4 -15 8 -15 10 0 2 7 4 15 4 8
0 15 -4 15 -10z m-130 -20 c0 -5 -4 -10 -10 -10 -5 0 -10 5 -10 10 0 6 5 10
10 10 6 0 10 -4 10 -10z m221 -30 c-13 -11 -31 -20 -40 -20 -9 1 -1 9 19 20
45 24 51 24 21 0z m54 -9 c6 -11 -62 -47 -72 -38 -3 4 3 10 13 14 10 4 25 13
32 20 16 16 19 16 27 4z m35 -21 c0 -5 -7 -10 -16 -10 -8 0 -12 5 -9 10 3 6
10 10 16 10 5 0 9 -4 9 -10z m-30 -31 c0 -5 -9 -9 -20 -9 -13 0 -18 5 -14 14
6 15 34 11 34 -5z m-433 -5 c-3 -3 -12 -4 -19 -1 -8 3 -5 6 6 6 11 1 17 -2 13
-5z m388 -14 c3 -5 1 -10 -4 -10 -6 0 -11 5 -11 10 0 6 2 10 4 10 3 0 8 -4 11
-10z m91 -17 c-10 -10 -19 5 -10 18 6 11 8 11 12 0 2 -7 1 -15 -2 -18z m-286
-13 c0 -5 -5 -10 -11 -10 -5 0 -7 5 -4 10 3 6 8 10 11 10 2 0 4 -4 4 -10z
m239 1 c7 -5 9 -11 5 -14 -5 -3 -15 1 -22 9 -14 16 -5 18 17 5z m-52 -127 c-9
-9 -28 6 -21 18 4 6 10 6 17 -1 6 -6 8 -13 4 -17z"/>
<path d="M10196 3050 c6 -6 21 -6 39 -1 30 9 30 9 -9 10 -26 1 -37 -2 -30 -9z"/>
<path d="M11860 2969 c0 -32 13 -59 29 -59 18 0 91 -104 116 -165 21 -50 27
-44 10 12 -22 72 -155 255 -155 212z"/>
<path d="M12295 2950 c-8 -13 15 -24 27 -12 6 6 4 11 -6 15 -8 3 -18 2 -21 -3z"/>
<path d="M11779 2948 c0 -2 -2 -16 -3 -33 -2 -25 11 -43 80 -115 45 -47 91
-96 103 -110 l20 -25 1 31 c0 20 -11 45 -31 70 -39 49 -61 92 -54 103 6 11
-38 41 -60 41 -8 0 -15 9 -15 20 0 13 -7 20 -20 20 -11 0 -20 -1 -21 -2z"/>
<path d="M10950 2670 c-9 -6 -10 -10 -3 -10 6 0 15 5 18 10 8 12 4 12 -15 0z"/>
<path d="M12006 2563 c-21 -27 -44 -61 -51 -78 -14 -34 -29 -142 -15 -110 5
11 9 31 9 44 1 13 24 55 52 93 59 82 64 122 5 51z"/>
<path d="M11272 2559 c2 -7 10 -15 17 -17 8 -3 12 1 9 9 -2 7 -10 15 -17 17
-8 3 -12 -1 -9 -9z"/>
<path d="M11498 2513 c6 -2 18 -2 25 0 6 3 1 5 -13 5 -14 0 -19 -2 -12 -5z"/>
<path d="M12110 2485 c0 -14 -3 -25 -8 -25 -21 0 -72 -62 -82 -101 -7 -24 -17
-47 -24 -51 -8 -6 -7 -8 2 -8 7 0 37 24 67 53 53 51 55 55 55 105 0 29 -2 52
-5 52 -3 0 -5 -11 -5 -25z"/>
<path d="M13095 2429 c-33 -21 -107 -66 -165 -100 -197 -113 -332 -204 -185
-124 150 82 358 208 388 235 43 39 34 37 -38 -11z"/>
<path d="M12085 2324 c-22 -19 -31 -31 -20 -25 29 14 78 62 63 61 -2 0 -21
-16 -43 -36z"/>
<path d="M11880 2298 c-51 -57 -133 -115 -295 -208 -229 -132 -345 -178 -600
-240 -66 -16 -149 -38 -184 -49 -74 -24 -273 -111 -282 -123 -3 -5 -14 -6 -25
-2 -16 5 -17 4 -4 -6 12 -9 9 -10 -15 -5 -24 5 -28 4 -17 -6 16 -17 87 1 140
35 49 33 211 88 385 131 176 45 366 108 433 146 28 15 86 46 129 69 118 62
281 177 336 238 27 30 49 58 49 63 0 13 0 13 -50 -43z"/>
<path d="M10031 2270 c-1 -19 26 -150 32 -157 14 -14 11 21 -9 92 -12 44 -23
73 -23 65z"/>
<path d="M11830 2124 c-30 -24 -112 -79 -182 -121 -70 -43 -125 -79 -123 -81
10 -11 323 195 355 233 19 23 9 17 -50 -31z"/>
<path d="M10140 1706 c0 -3 14 -13 32 -22 25 -13 50 -15 114 -11 130 8 136 25
8 23 -60 0 -119 3 -131 7 -13 5 -23 6 -23 3z"/>
<path d="M11903 1684 c-18 -9 -33 -21 -33 -26 0 -10 23 1 55 26 26 20 18 20
-22 0z"/>
<path d="M11814 1639 c-12 -19 11 -30 32 -15 18 14 18 15 -5 9 -17 -4 -22 -3
-17 5 4 7 5 12 2 12 -3 0 -8 -5 -12 -11z"/>
<path d="M12280 1579 c-28 -15 -31 -19 -13 -19 19 0 53 23 53 36 0 6 0 5 -40
-17z"/>
<path d="M11951 1414 c0 -11 3 -14 6 -6 3 7 2 16 -1 19 -3 4 -6 -2 -5 -13z"/>
<path d="M11961 1374 c0 -11 3 -14 6 -6 3 7 2 16 -1 19 -3 4 -6 -2 -5 -13z"/>
<path d="M12001 1280 c11 -17 70 -50 185 -102 108 -50 184 -92 213 -118 58
-50 127 -93 143 -88 6 2 -6 15 -28 28 -21 13 -70 48 -109 76 -45 34 -118 73
-205 110 -74 31 -153 71 -175 88 -37 28 -39 29 -24 6z"/>
<path d="M11615 1213 c-3 -27 -7 -59 -9 -72 -3 -22 24 -61 42 -61 14 0 14 96
1 140 -7 22 -16 40 -20 40 -4 0 -10 -21 -14 -47z"/>
<path d="M11685 1080 c3 -5 8 -10 11 -10 2 0 4 5 4 10 0 6 -5 10 -11 10 -5 0
-7 -4 -4 -10z"/>
<path d="M11438 1063 c6 -2 10 -9 6 -14 -3 -5 0 -9 5 -9 6 0 11 -7 11 -15 0
-8 4 -15 9 -15 5 0 16 -3 24 -6 9 -3 16 2 20 15 4 16 -3 23 -34 35 -22 9 -43
16 -47 15 -4 0 -1 -3 6 -6z"/>
</g>
</svg>
